HIERARCHY
ROOT Hips
{
     OFFSET 1.88212 96.90440 -13.34250
     CHANNELS 6 Xposition Yposition Zposition Zrotation Xrotation Yrotation
     JOINT Spine
     {
          OFFSET 0.00000 11.89050 0.00000
          CHANNELS 3 Zrotation Xrotation Yrotation
          JOINT Spine1
          {
               OFFSET -0.00000 25.65740 0.12766
               CHANNELS 3 Zrotation Xrotation Yrotation
               JOINT HEad
               {
                    OFFSET 0.00000 8.73416 0.01134
                    CHANNELS 3 Zrotation Xrotation Yrotation
                    End Site
                    {
                         OFFSET -0.29000 12.77420 2.51395
                    }
               }
               JOINT LeftShoulder1
               {
                    OFFSET 8.99000 -0.36225 -0.22000
                    CHANNELS 3 Zrotation Xrotation Yrotation
                    JOINT LeftArm
                    {
                         OFFSET 10.28270 -0.00338 0.32212
                         CHANNELS 3 Zrotation Xrotation Yrotation
                         JOINT LeftForeArm
                         {
                              OFFSET 32.76690 0.09914 -1.42434
                              CHANNELS 3 Zrotation Xrotation Yrotation
                              JOINT LeftHand
                              {
                                   OFFSET 27.56430 0.08536 1.02216
                                   CHANNELS 3 Zrotation Xrotation Yrotation
                                   End Site
                                   {
                                        OFFSET 16.74430 -0.60000 1.50291
                                   }
                              }
                         }
                    }
               }
               JOINT RightShoulder
               {
                    OFFSET -8.99000 -0.36225 -0.22000
                    CHANNELS 3 Zrotation Xrotation Yrotation
                    JOINT RightArm
                    {
                         OFFSET -10.28270 -0.00338 0.32212
                         CHANNELS 3 Zrotation Xrotation Yrotation
                         JOINT RightForeArm
                         {
                              OFFSET -32.89710 0.09914 -1.42434
                              CHANNELS 3 Zrotation Xrotation Yrotation
                              JOINT RightHand
                              {
                                   OFFSET -27.49210 0.08536 1.02216
                                   CHANNELS 3 Zrotation Xrotation Yrotation
                                   End Site
                                   {
                                        OFFSET -16.63120 -0.60000 1.50291
                                   }
                              }
                         }
                    }
               }
          }
     }
     JOINT LeftUpLeg
     {
          OFFSET 8.94580 -8.66707 0.10165
          CHANNELS 3 Zrotation Xrotation Yrotation
          JOINT LeftLeg
          {
               OFFSET 0.00000 -44.42270 1.37270
               CHANNELS 3 Zrotation Xrotation Yrotation
               JOINT LeftFoot
               {
                    OFFSET -0.25355 -42.09240 -1.46059
                    CHANNELS 3 Zrotation Xrotation Yrotation
                    JOINT LeftToes
                    {
                         OFFSET -0.04000 -4.41509 8.49910
                         CHANNELS 3 Zrotation Xrotation Yrotation
                         End Site
                         {
                              OFFSET 0.08000 -0.04745 9.77979
                         }
                    }
               }
          }
     }
     JOINT RightUpLeg
     {
          OFFSET -8.94580 -8.66707 0.10165
          CHANNELS 3 Zrotation Xrotation Yrotation
          JOINT RightLeg
          {
               OFFSET 0.00000 -44.42270 1.37270
               CHANNELS 3 Zrotation Xrotation Yrotation
               JOINT RightFoot
               {
                    OFFSET 0.25355 -42.09240 -1.46059
                    CHANNELS 3 Zrotation Xrotation Yrotation
                    JOINT RightToes
                    {
                         OFFSET 0.04000 -4.41509 8.49910
                         CHANNELS 3 Zrotation Xrotation Yrotation
                         End Site
                         {
                              OFFSET -0.08000 -0.13745 9.77979
                         }
                    }
               }
          }
     }
}
MOTION
Frames: 17
Frame Time: 0.01667
60.01226 95.84818 -33.31203 -4.88406 -11.26667 -17.78430 -3.88965 18.61564 -1.80150 0.00688 0.00465 -0.01977 4.46823 8.47040 -31.67620 -0.14420 12.57922 2.06220 -81.57393 -44.08003 -70.66866 -50.52187 25.13417 -64.38274 22.13450 21.41770 -11.27622 22.05963 13.47599 -5.59804 75.39758 -16.37200 59.61251 23.01421 33.78522 104.54694 15.84133 15.27043 6.31631 19.40546 4.24825 -18.15217 -28.51678 -5.73713 78.12113 4.66019 0.00785 0.00144 13.53788 -11.52874 -46.64603 -19.44902 12.50925 2.20869 32.35479 -6.52384 -46.24825 -29.41816 0.05126 -0.00196 4.52750 -29.95683 17.14038 
60.16180 95.88937 -33.44345 -4.08744 -10.88635 -14.76975 -3.64322 18.26195 -2.81125 0.00458 0.00477 -0.01560 4.26838 7.62740 -31.39289 1.28435 12.44231 -0.70294 -83.36009 -45.79018 -70.01870 -49.42259 26.55457 -64.41006 16.03087 17.03220 -14.39128 22.22303 12.94694 -6.68925 74.93095 -15.39017 59.32735 23.24949 34.02116 104.82198 15.34387 16.15025 5.71960 18.94330 3.73577 -14.74969 -28.71618 -5.27486 73.24554 3.74142 0.00997 0.00322 14.56774 -12.03086 -47.78342 -20.22405 12.37263 2.70941 32.98748 -7.22706 -47.88250 -27.30641 -0.03073 -0.00522 2.02848 -28.89837 16.45836 
60.34119 95.91773 -33.65753 -3.42211 -10.53175 -12.06857 -3.46874 18.06595 -3.65435 0.00321 0.00434 -0.01251 4.17712 6.75150 -31.01171 2.01782 12.16112 -2.42537 -83.94758 -47.06121 -70.93382 -49.04089 26.35015 -63.56402 18.72136 17.89095 -12.51595 22.27293 12.46808 -7.26518 74.79720 -14.88242 59.21326 23.21099 34.23802 105.03802 15.79991 15.56196 5.72142 18.35004 3.17072 -11.52004 -28.70541 -4.53719 68.76965 2.51157 0.01140 0.00578 15.73430 -12.37455 -48.85624 -21.30658 11.73661 4.45652 33.84145 -7.84174 -50.42854 -28.49940 0.01023 0.00070 2.96987 -28.42442 16.28430 
60.53645 95.93539 -33.94317 -2.87316 -10.22159 -9.62766 -3.33282 18.01791 -4.35116 0.00274 0.00365 -0.00993 4.18171 5.86063 -30.56638 2.67570 11.77085 -3.62124 -84.21457 -48.24947 -72.98847 -49.32995 25.26523 -61.96728 15.15744 15.05913 -14.67654 22.21656 12.02988 -7.44813 74.93927 -14.62644 59.26262 22.98174 34.47039 105.13921 15.65940 15.54625 5.55675 17.68427 2.57606 -8.51746 -28.44693 -3.61006 64.67609 0.98716 0.01196 0.00896 17.00153 -12.55782 -49.88025 -22.34783 11.15205 6.19291 35.34918 -6.93947 -48.43487 -32.73697 0.18018 0.11610 7.26103 -25.72679 27.78173 
60.71333 95.95358 -34.28852 -2.41986 -9.98133 -7.39504 -3.39803 18.78294 -3.53092 -0.01715 0.07358 0.06085 4.61054 4.12980 -31.43054 4.34574 10.40796 -6.14773 -85.93620 -49.81282 -73.03445 -49.07204 26.58246 -61.82319 16.54023 15.14011 -13.56344 22.62686 10.40192 -8.74887 74.88935 -10.44122 60.88179 19.93204 32.16262 104.66319 16.12682 14.80115 5.61179 16.98611 1.98956 -5.79165 -27.93916 -2.57816 60.93909 -0.80523 0.01171 0.01241 18.34237 -12.58556 -50.85564 -23.35294 10.52829 7.89473 36.64640 -4.78586 -43.57332 -30.18310 -0.21138 0.00373 1.75846 -25.57696 11.11393 
60.82794 95.96481 -34.71072 -2.02777 -9.84280 -5.33195 -3.38942 19.31398 -2.56964 0.00259 -0.00871 -0.02549 4.85590 2.94660 -32.19860 0.08999 9.34902 1.87523 -82.71477 -40.81847 -76.90533 -48.37648 25.44928 -59.64827 14.24764 12.99876 -15.21028 18.78771 11.78081 1.20440 78.86919 -18.85241 61.07951 18.00230 31.13837 105.28941 16.21239 14.40427 5.40899 16.27911 1.42728 -3.37376 -27.20971 -1.49910 57.54617 -2.82456 0.01083 0.01582 19.75204 -12.48390 -51.78596 -24.29096 9.91402 9.54997 37.37870 -3.50933 -41.15531 -29.92543 -0.01431 -0.04951 2.99730 -29.18634 26.72483 
60.84389 95.94791 -35.23574 -1.64707 -9.83411 -3.39748 -3.37987 19.68077 -1.49389 0.00137 -0.00217 -0.02454 5.02514 2.02331 -33.07693 2.67230 8.84300 -3.13338 -86.52945 -43.84095 -78.57519 -47.15346 25.97307 -58.39205 14.50822 12.45118 -14.79451 19.27804 10.65509 -1.22754 78.56585 -16.66546 61.33023 16.94856 30.72199 105.75749 28.16589 0.63504 13.99827 15.56925 0.90168 -1.28819 -26.30150 -0.43662 54.48734 -5.01154 0.00943 0.01907 21.23713 -12.28646 -52.67752 -25.04572 9.30651 11.13621 38.01483 -2.69304 -39.48434 -29.99489 0.00380 0.00637 2.36536 -28.69534 17.93866 
60.74410 95.87209 -35.86200 -1.23404 -9.95656 -1.55986 -3.43123 19.92696 -0.35553 -0.00384 0.00375 -0.02240 5.13551 1.41644 -33.93935 4.81172 8.33030 -7.46961 -90.29095 -46.42287 -79.48729 -45.12187 26.85560 -58.39108 12.08618 10.63851 -15.94814 19.43944 9.81455 -3.14679 78.68805 -15.47059 61.73264 16.43144 30.63351 105.64582 22.16718 5.34834 10.46934 14.85884 0.41443 0.46050 -25.26950 0.55037 51.75053 -7.30212 0.00757 0.02197 22.80045 -12.01784 -53.53440 -25.55964 8.72274 12.64255 38.49991 -2.20454 -38.39465 -30.26531 0.01162 0.01167 0.92888 -28.22615 16.27724 
60.52966 95.71948 -36.56324 -0.76717 -10.18603 0.20342 -3.55608 20.43548 0.47253 -0.00776 0.00225 -0.01925 5.19650 0.74580 -34.38988 0.37560 7.69782 -0.83195 -87.31139 -39.00353 -80.00221 -42.28903 27.15225 -58.71035 10.60569 9.80963 -15.76408 19.42074 9.01449 -4.48259 79.05307 -14.63369 62.24083 16.05092 30.98902 105.34811 25.24428 3.15140 11.86035 14.15558 -0.04319 1.88313 -24.17360 1.43544 49.31972 -9.64932 0.00533 0.02408 24.43480 -11.69730 -54.35000 -25.83942 8.19670 14.06420 38.72722 -1.85306 -37.77214 -30.01766 -0.00559 0.00436 -0.19827 -27.89525 12.91640 
60.21766 95.56284 -37.30759 -0.16129 -11.10373 2.23673 -3.25962 21.18262 0.63693 0.01941 -0.03636 -0.01371 5.05209 0.61653 -34.19654 1.29284 3.82382 -0.57641 -87.23558 -36.01834 -80.41600 -38.26391 25.19764 -56.76752 6.36862 12.11289 -19.96458 21.67351 5.91855 -4.79766 76.32664 -15.69468 60.83677 15.44908 31.64091 106.00974 20.94076 5.16404 12.58365 13.40279 -0.33368 3.02582 -22.65695 2.95499 45.61207 -7.59151 0.02476 -0.04171 19.74164 -9.72308 -48.50606 -25.63277 8.15754 15.37146 38.40898 -0.96189 -36.76442 -29.44778 -0.01803 -0.00764 2.14418 -24.25547 14.58455 
59.77468 95.45271 -38.29255 0.57867 -12.65501 4.46120 -2.55606 22.14043 0.21816 0.02297 -0.03580 -0.01580 4.81788 0.98528 -33.34472 4.20567 -2.03310 -3.90376 -87.80701 -36.41152 -79.72965 -33.76207 23.58517 -54.09388 1.99613 15.53584 -26.05874 25.56898 1.24861 -4.20091 71.03326 -18.02390 58.08622 14.65067 32.50721 107.54890 13.22288 8.84509 12.20571 12.67631 -0.49950 3.96696 -20.93491 5.21923 40.68378 -3.70941 0.08626 -0.05430 11.17914 -5.51237 -39.04491 -24.93599 8.55555 16.53762 37.54278 0.52257 -35.32870 -28.53977 -0.03510 -0.01377 5.67750 -17.35842 17.29877 
59.22613 95.39355 -39.44852 1.42514 -14.20456 6.62716 -1.53476 22.64422 -0.55588 0.02243 -0.03065 -0.01783 4.48768 1.96583 -31.86855 7.23131 -9.07605 -7.58912 -87.74998 -38.01957 -77.29774 -29.96844 23.34486 -51.76189 -1.08969 19.61629 -32.53632 30.70022 -4.29138 -2.70046 63.34669 -20.92239 54.37847 13.64248 33.41006 109.72463 4.40809 13.31637 10.42165 11.95893 -1.07074 5.06125 -19.09584 8.32765 34.65400 0.70587 0.14168 -0.04592 2.94765 -3.10625 -31.34901 -23.81854 8.73452 17.44724 36.14931 2.60060 -33.39732 -27.27779 -0.05538 -0.02026 9.94231 -8.44503 19.55795 
58.62601 95.42840 -40.76341 2.20711 -15.68076 8.38777 0.51546 21.55492 -2.33660 0.06573 -0.07900 -0.06558 3.76243 5.17741 -28.35160 13.62298 -16.74905 -9.24818 -88.69537 -40.47622 -72.51313 -29.18776 25.38765 -52.01624 -2.81852 24.24506 -36.02505 39.31606 -11.07477 0.35106 48.93135 -24.73567 48.98993 12.22666 34.24704 112.57657 -3.02695 18.45691 1.23866 11.13866 -2.89060 6.54863 -16.96305 15.06193 25.74045 0.81577 0.06829 -0.06483 1.64891 -3.15408 -27.29203 -21.70512 8.22891 17.46332 33.21559 6.33621 -29.41348 -25.02020 -0.12502 -0.05178 20.25025 -1.26219 23.00898 
58.07163 95.51376 -42.20543 2.82998 -17.02028 9.66741 3.29047 19.17191 -4.98036 0.06431 -0.05262 -0.06945 2.64827 10.18173 -23.01514 11.23201 -13.46426 -9.27590 -85.34672 -41.18823 -78.67424 -30.68213 27.66057 -53.51497 -2.52835 27.31716 -36.12423 38.36720 -9.25177 -1.16535 46.60203 -27.56696 50.74215 11.18183 35.14911 114.26478 0.69887 5.32508 2.72579 10.04439 -5.89498 8.05037 -13.19968 23.00633 15.97278 0.33114 -0.02726 -0.00657 -2.13389 -4.01954 -19.39846 -18.91191 7.07629 16.57601 28.78417 11.29118 -23.10515 -21.81145 -0.21490 -0.07675 16.16122 -2.70199 10.20202 
57.62018 95.60577 -43.70374 3.18478 -18.17870 10.38037 6.44364 15.83616 -8.35878 0.05189 -0.02351 -0.07354 0.87081 16.74216 -15.84806 8.27263 -9.21458 -8.83186 -80.34046 -43.86785 -84.50673 -33.48592 29.46739 -55.89294 -3.56367 31.12459 -34.34397 36.67836 -6.13809 -2.10517 44.61151 -29.06977 51.81207 10.42671 35.95683 114.74216 -3.19777 10.21005 -2.68390 9.07001 -8.85077 9.65916 -8.20942 30.49274 4.86199 -0.31395 -0.04643 -0.01303 -14.87554 7.13708 -18.61743 -15.74726 5.38990 14.84079 22.06757 14.68738 -14.05934 -8.17596 -1.03381 -0.47653 9.73784 0.54108 2.87796 
57.34416 95.60722 -45.20450 2.53792 -19.06331 8.45975 9.92770 12.20705 -10.55113 0.03972 0.00832 -0.07676 -2.01124 24.27391 -6.72175 4.91518 -4.59727 -7.70873 -73.93762 -48.89064 -89.11053 -36.67402 30.90979 -59.49498 1.77839 17.73667 -22.55190 34.09882 -2.06532 -2.40674 43.44069 -29.37794 52.90008 9.98675 36.68370 114.33795 -1.60134 3.38126 -0.68548 8.62593 -11.89302 12.04449 -1.98585 37.26117 -6.38326 -0.96492 -0.04782 -0.01803 -11.54840 -3.65730 -8.79555 -12.08556 2.84338 14.13192 15.77320 18.34542 -5.22586 4.80038 -0.87965 -0.00663 5.38920 -6.98191 -21.53520 
57.24337 95.54564 -46.69669 1.09314 -19.38409 4.35093 13.71188 8.79446 -11.97495 0.02605 0.03773 -0.07643 -6.69336 32.24751 4.65904 1.25296 -0.28160 -5.60993 -65.92532 -56.44815 -90.95801 -39.38582 32.43610 -64.99282 -4.09431 33.15503 -21.47650 30.91999 2.56764 -1.39483 42.72240 -28.99439 54.01592 9.94402 37.13939 113.10663 -3.77794 7.06262 -3.39686 8.81404 -14.65887 14.87531 4.98850 42.60189 -17.68859 -1.69163 -0.05226 -0.02251 -16.45031 -5.65279 -4.67077 -8.15290 -0.32062 14.26763 10.31143 20.35233 -1.94746 1.37504 -0.13205 -0.07244 13.96369 -10.88108 -33.96268 
